<?xml version="1.0" encoding="UTF-8"?>
<svg version="1.1" xmlns="http://www.w3.org/2000/svg" width="50" height="50">
<path d="M0 0 C5.20777757 4.87319968 8.0146723 11.37107349 8.375 18.4375 C8.0096636 25.23467988 5.68016199 30.91987049 0.91796875 35.82421875 C-4.84838222 40.52146323 -10.48530222 42.31939045 -17.875 41.75 C-21.80086009 41.16989009 -24.84010086 40.02993811 -28.25 37.9375 C-29.095625 37.421875 -29.94125 36.90625 -30.8125 36.375 C-35.79104994 31.39645006 -38.52482503 25.49102445 -38.875 18.4375 C-38.51006209 11.64773418 -36.20835815 5.87155952 -31.34765625 1.05078125 C-21.35223185 -6.87265499 -10.59403948 -6.72314044 0 0 Z " fill="#663A8D" transform="translate(40.25,7.0625)"/>
<path d="M0 0 C0.66 1.32 1.32 2.64 2 4 C1.34 4 0.68 4 0 4 C-0.33 5.32 -0.66 6.64 -1 8 C-2.2077558 4.37673261 -1.54311128 3.35853631 0 0 Z M-23 6 C-21.56344146 5.91868537 -20.1255517 5.86066441 -18.6875 5.8125 C-17.48673828 5.76029297 -17.48673828 5.76029297 -16.26171875 5.70703125 C-13.46457872 6.06935509 -12.91325649 7.03047126 -11 9 C-7.6044388 9.56480622 -4.11549872 9.55774936 -1 8 C1.00800456 8.28112064 3.01014051 8.61067967 5 9 C5 9.66 5 10.32 5 11 C-0.67117015 15.53693612 -6.34989682 17.39939908 -13.625 16.8125 C-17.53075447 16.23911636 -20.63533789 15.13368816 -24 13 C-24.66 12.01 -25.32 11.02 -26 10 C-25.01 9.34 -24.02 8.68 -23 8 C-23 7.34 -23 6.68 -23 6 Z " fill="#323B8D" transform="translate(36,32)"/>
</svg>
