<?xml version="1.0" encoding="UTF-8"?>
<svg version="1.1" xmlns="http://www.w3.org/2000/svg" width="26" height="15">
<path d="M0 0 C8.58 0 17.16 0 26 0 C26 4.95 26 9.9 26 15 C17.42 15 8.84 15 0 15 C0 10.05 0 5.1 0 0 Z " fill="#88ABC1" transform="translate(0,0)"/>
<path d="M0 0 C0.33 0.66 0.66 1.32 1 2 C1.66 2 2.32 2 3 2 C2.67 3.98 2.34 5.96 2 8 C5.3 8 8.6 8 12 8 C12 8.99 12 9.98 12 11 C3.42 11 -5.16 11 -14 11 C-14 10.34 -14 9.68 -14 9 C-12.02253397 8.26919734 -10.01927511 7.60578253 -8 7 C-7.34 7.33 -6.68 7.66 -6 8 C-5.34 6.02 -4.68 4.04 -4 2 C-3.01 2 -2.02 2 -1 2 C-0.67 1.34 -0.34 0.68 0 0 Z " fill="#746476" transform="translate(14,4)"/>
<path d="M0 0 C2.375 -0.125 2.375 -0.125 5 0 C5.66 0.66 6.32 1.32 7 2 C9.20250992 2.46006346 9.20250992 2.46006346 11.625 2.625 C12.44226562 2.69976562 13.25953125 2.77453125 14.1015625 2.8515625 C14.72804688 2.90054687 15.35453125 2.94953125 16 3 C16 5.64 16 8.28 16 11 C12.7 11 9.4 11 6 11 C6.33 9.02 6.66 7.04 7 5 C6.34 5 5.68 5 5 5 C5 4.34 5 3.68 5 3 C3.68 3.33 2.36 3.66 1 4 C0.67 2.68 0.34 1.36 0 0 Z " fill="#C3CEC8" transform="translate(10,1)"/>
<path d="M0 0 C8.58 0 17.16 0 26 0 C26 1.32 26 2.64 26 4 C24.54207116 4.05399736 23.08357288 4.09279177 21.625 4.125 C20.81289063 4.14820313 20.00078125 4.17140625 19.1640625 4.1953125 C17 4 17 4 15 2 C12.33050591 1.75684344 12.33050591 1.75684344 9.375 1.875 C8.37210938 1.89304688 7.36921875 1.91109375 6.3359375 1.9296875 C5.17964844 1.96449219 5.17964844 1.96449219 4 2 C4 2.66 4 3.32 4 4 C2.68 4.33 1.36 4.66 0 5 C0 3.35 0 1.7 0 0 Z " fill="#78A5C6" transform="translate(0,0)"/>
<path d="M0 0 C2.375 -0.125 2.375 -0.125 5 0 C5.66 0.66 6.32 1.32 7 2 C9.20250992 2.46006346 9.20250992 2.46006346 11.625 2.625 C12.44226562 2.69976562 13.25953125 2.77453125 14.1015625 2.8515625 C14.72804688 2.90054687 15.35453125 2.94953125 16 3 C15.66015625 4.921875 15.66015625 4.921875 15 7 C12.4375 8.25 12.4375 8.25 10 9 C10.33 7.35 10.66 5.7 11 4 C7.7 4 4.4 4 1 4 C0.67 2.68 0.34 1.36 0 0 Z " fill="#9FAFC2" transform="translate(10,1)"/>
<path d="M0 0 C0.33 0 0.66 0 1 0 C1 1.65 1 3.3 1 5 C4.3 5 7.6 5 11 5 C11 5.99 11 6.98 11 8 C6.38 8 1.76 8 -3 8 C-2.34 7.67 -1.68 7.34 -1 7 C-0.59270772 4.67843403 -0.25561323 2.3431213 0 0 Z " fill="#58515B" transform="translate(15,7)"/>
<path d="M0 0 C-0.875 4.75 -0.875 4.75 -2 7 C-4.64860427 7.59355614 -7.29197322 7.74209269 -10 8 C-10 6.68 -10 5.36 -10 4 C-8.02 3.67 -6.04 3.34 -4 3 C-4.66 2.34 -5.32 1.68 -6 1 C-3 0 -3 0 0 0 Z " fill="#B1C5C1" transform="translate(10,5)"/>
<path d="M0 0 C0.33 0.66 0.66 1.32 1 2 C1.66 2 2.32 2 3 2 C2.09456151 4.71631546 1.07525194 7.34771188 0 10 C-0.99 10 -1.98 10 -3 10 C-1.125 2.25 -1.125 2.25 0 0 Z " fill="#89767C" transform="translate(14,4)"/>
<path d="M0 0 C0.99 0.33 1.98 0.66 3 1 C3 1.66 3 2.32 3 3 C3.99 3.33 4.98 3.66 6 4 C6 4.33 6 4.66 6 5 C3.69 5 1.38 5 -1 5 C-0.67 3.35 -0.34 1.7 0 0 Z " fill="#8996BF" transform="translate(1,4)"/>
<path d="M0 0 C1.98 0 3.96 0 6 0 C5.67 1.65 5.34 3.3 5 5 C4.01 4.67 3.02 4.34 2 4 C2 3.01 2 2.02 2 1 C1.34 0.67 0.68 0.34 0 0 Z " fill="#C6BBBD" transform="translate(15,5)"/>
<path d="M0 0 C1.65 0 3.3 0 5 0 C5.33 0.99 5.66 1.98 6 3 C4.35 3.33 2.7 3.66 1 4 C0.67 2.68 0.34 1.36 0 0 Z " fill="#DAE8EF" transform="translate(10,1)"/>
</svg>
