<?xml version="1.0" encoding="UTF-8"?>
<svg version="1.1" xmlns="http://www.w3.org/2000/svg" width="26" height="26">
<path d="M0 0 C0.94875 0.04125 1.8975 0.0825 2.875 0.125 C2.875 1.445 2.875 2.765 2.875 4.125 C3.36846924 4.61073486 3.86193848 5.09646973 4.37036133 5.59692383 C5.875 7.125 5.875 7.125 6.1237793 9.2097168 C6.06617432 9.99000244 6.00856934 10.77028809 5.94921875 11.57421875 C5.90112061 12.33822998 5.85302246 13.10224121 5.8034668 13.8894043 C5.72394775 14.85402588 5.64442871 15.81864746 5.5625 16.8125 C5.335625 19.885625 5.10875 22.95875 4.875 26.125 C-1.395 26.125 -7.665 26.125 -14.125 26.125 C-14.125 24.475 -14.125 22.825 -14.125 21.125 C-15.445 20.795 -16.765 20.465 -18.125 20.125 C-16.475 13.855 -14.825 7.585 -13.125 1.125 C-10.485 1.455 -7.845 1.785 -5.125 2.125 C-3.125 0.125 -3.125 0.125 0 0 Z " fill="#070303" transform="translate(19.125,-0.125)"/>
<path d="M0 0 C2.31 0.33 4.62 0.66 7 1 C7 1.99 7 2.98 7 4 C9.64 4 12.28 4 15 4 C14.34 7.96 13.68 11.92 13 16 C11.68 16.33 10.36 16.66 9 17 C8.67 17.66 8.34 18.32 8 19 C4.37 18.34 0.74 17.68 -3 17 C-2.36934845 11.2190275 -1.34844868 5.6556294 0 0 Z " fill="#F0CE87" transform="translate(7,3)"/>
<path d="M0 0 C2.97 0.33 5.94 0.66 9 1 C8.67 1.99 8.34 2.98 8 4 C5.69 3.34 3.38 2.68 1 2 C0.95101563 2.556875 0.90203125 3.11375 0.8515625 3.6875 C0.33444423 8.96567265 -0.60462463 13.88362365 -2 19 C-1.06027344 19.09087891 -1.06027344 19.09087891 -0.1015625 19.18359375 C0.71570313 19.26738281 1.53296875 19.35117187 2.375 19.4375 C3.59316406 19.55931641 3.59316406 19.55931641 4.8359375 19.68359375 C7 20 7 20 9 21 C9.33 20.01 9.66 19.02 10 18 C11.32 18 12.64 18 14 18 C13 21 13 21 11 22 C9.28766312 21.9129796 7.57824594 21.75902838 5.875 21.5625 C4.96492187 21.46066406 4.05484375 21.35882812 3.1171875 21.25390625 C2.41851562 21.17011719 1.71984375 21.08632813 1 21 C1 21.99 1 22.98 1 24 C5.95 24 10.9 24 16 24 C16 24.33 16 24.66 16 25 C10.39 25 4.78 25 -1 25 C-1 23.35 -1 21.7 -1 20 C-2.32 19.67 -3.64 19.34 -5 19 C-3.35 12.73 -1.7 6.46 0 0 Z " fill="#151006" transform="translate(6,1)"/>
<path d="M0 0 C2.31 0.33 4.62 0.66 7 1 C7 1.99 7 2.98 7 4 C8.32 4.33 9.64 4.66 11 5 C10.01 5 9.02 5 8 5 C8.95865509 7.33075929 8.95865509 7.33075929 12 9 C11.67 9.66 11.34 10.32 11 11 C7.37 11 3.74 11 0 11 C-0.84098656 6.98195309 -1.05404945 3.98196457 0 0 Z " fill="#E1C17F" transform="translate(7,3)"/>
<path d="M0 0 C0.33 0 0.66 0 1 0 C1 2.97 1 5.94 1 9 C-3.95 9 -8.9 9 -14 9 C-14 8.01 -14 7.02 -14 6 C-13.31292969 6.03480469 -12.62585937 6.06960937 -11.91796875 6.10546875 C-10.56638672 6.14607422 -10.56638672 6.14607422 -9.1875 6.1875 C-7.84751953 6.23970703 -7.84751953 6.23970703 -6.48046875 6.29296875 C-3.96797984 6.2070405 -3.96797984 6.2070405 -2.23828125 4.67578125 C-0.79660179 2.90557435 -0.79660179 2.90557435 0 0 Z " fill="#E5AE3D" transform="translate(21,16)"/>
<path d="M0 0 C2.97 0.33 5.94 0.66 9 1 C8.67 1.99 8.34 2.98 8 4 C5.69 3.34 3.38 2.68 1 2 C0.95101563 2.56847656 0.90203125 3.13695312 0.8515625 3.72265625 C0.36856919 8.71081129 -0.47638163 13.22599578 -2 18 C-3.1171875 16.453125 -3.1171875 16.453125 -4 14 C-3.3203125 10.546875 -3.3203125 10.546875 -2.125 6.75 C-1.82529297 5.77546875 -1.82529297 5.77546875 -1.51953125 4.78125 C-1.02608016 3.18340837 -0.51476828 1.59110197 0 0 Z " fill="#17140D" transform="translate(6,1)"/>
<path d="M0 0 C1.32 0 2.64 0 4 0 C4 1.32 4 2.64 4 4 C3.34 4 2.68 4 2 4 C2 4.66 2 5.32 2 6 C3.65 6 5.3 6 7 6 C6.67 6.99 6.34 7.98 6 9 C6 8.34 6 7.68 6 7 C3.36 7 0.72 7 -2 7 C-1.34 4.69 -0.68 2.38 0 0 Z " fill="#7A4A40" transform="translate(16,0)"/>
<path d="M0 0 C6.625 0.75 6.625 0.75 10 3 C9.67 3.66 9.34 4.32 9 5 C5.37 5 1.74 5 -2 5 C-1.34 3.35 -0.68 1.7 0 0 Z " fill="#6C5C3C" transform="translate(9,9)"/>
<path d="M0 0 C-0.33 2.31 -0.66 4.62 -1 7 C-2.32 7.33 -3.64 7.66 -5 8 C-5.66 5.69 -6.32 3.38 -7 1 C-4 0 -4 0 0 0 Z " fill="#E9C883" transform="translate(22,7)"/>
<path d="M0 0 C1.32 0 2.64 0 4 0 C3 3 3 3 1 4 C-0.71233688 3.9129796 -2.42175406 3.75902838 -4.125 3.5625 C-5.03507813 3.46066406 -5.94515625 3.35882812 -6.8828125 3.25390625 C-7.58148438 3.17011719 -8.28015625 3.08632813 -9 3 C-8.67 2.34 -8.34 1.68 -8 1 C-5.69 1.66 -3.38 2.32 -1 3 C-0.67 2.01 -0.34 1.02 0 0 Z " fill="#5C4A26" transform="translate(16,19)"/>
<path d="M0 0 C2.35119399 3.52679099 2.21443452 5.02879485 2.125 9.1875 C2.10695313 10.27417969 2.08890625 11.36085938 2.0703125 12.48046875 C2.03550781 13.72763672 2.03550781 13.72763672 2 15 C1.67 15 1.34 15 1 15 C0.67 13.02 0.34 11.04 0 9 C-0.33 9 -0.66 9 -1 9 C-0.67 6.03 -0.34 3.06 0 0 Z " fill="#644E22" transform="translate(21,10)"/>
<path d="M0 0 C0.33 0 0.66 0 1 0 C1 2.64 1 5.28 1 8 C-0.32 7.67 -1.64 7.34 -3 7 C-2.01 4.69 -1.02 2.38 0 0 Z " fill="#F1B740" transform="translate(21,16)"/>
<path d="M0 0 C1.32 0 2.64 0 4 0 C4 1.32 4 2.64 4 4 C2.35 3.67 0.7 3.34 -1 3 C-0.67 2.01 -0.34 1.02 0 0 Z " fill="#551F2A" transform="translate(16,0)"/>
</svg>
