<?xml version="1.0" encoding="UTF-8"?>
<svg version="1.1" xmlns="http://www.w3.org/2000/svg" width="50" height="50">
<path d="M0 0 C7.75 -0.125 7.75 -0.125 10 1 C10 1.66 10 2.32 10 3 C10.66 3 11.32 3 12 3 C12 3.66 12 4.32 12 5 C12.66 5 13.32 5 14 5 C14 5.99 14 6.98 14 8 C15.32 8.33 16.64 8.66 18 9 C18 9.66 18 10.32 18 11 C18.66 11 19.32 11 20 11 C20 11.99 20 12.98 20 14 C20.66 14 21.32 14 22 14 C22.66 12.02 23.32 10.04 24 8 C24.99 8 25.98 8 27 8 C26.34 10.97 25.68 13.94 25 17 C25.99 17 26.98 17 28 17 C28 16.34 28 15.68 28 15 C28.969375 14.71125 29.93875 14.4225 30.9375 14.125 C34.10664203 13.35785318 34.10664203 13.35785318 35 11 C35.99 11 36.98 11 38 11 C38 13.31 38 15.62 38 18 C38.99 17.34 39.98 16.68 41 16 C41 18.33333333 41 20.66666667 41 23 C41.20625 23.804375 41.4125 24.60875 41.625 25.4375 C42.05728067 28.39141793 41.56217417 29.51889985 40 32 C39.34 32 38.68 32 38 32 C37.96261719 32.66386719 37.92523438 33.32773437 37.88671875 34.01171875 C37.17158262 43.61697854 37.17158262 43.61697854 34 47 C28.5400847 49.41496253 25.36673036 48.97145197 20 47 C19.67 47.99 19.34 48.98 19 50 C16.45494659 49.96675108 13.91833268 49.89935637 11.375 49.8125 C10.30572266 49.80379883 10.30572266 49.80379883 9.21484375 49.79492188 C3.52645279 49.56008005 0.95939895 48.10802503 -3 44 C-5.08974065 40.97045978 -5.17229967 39.03143453 -4.625 35.4375 C-3.88246514 30.31746313 -4.24864696 26.92568043 -6 22 C-5.34 22 -4.68 22 -4 22 C-3.87625 20.72125 -3.7525 19.4425 -3.625 18.125 C-3.25 14.25 -3.25 14.25 -1 12 C-1.2475 10.9171875 -1.2475 10.9171875 -1.5 9.8125 C-2.15737431 6.11476952 -1.17289335 3.51868004 0 0 Z M34 15 C35 17 35 17 35 17 Z M28 24 C29 26 29 26 29 26 Z M34 28 C33.67 28.66 33.34 29.32 33 30 C34.65 29.67 36.3 29.34 38 29 C36.68 28.67 35.36 28.34 34 28 Z " fill="#D6713D" transform="translate(7,0)"/>
<path d="M0 0 C7.75 -0.125 7.75 -0.125 10 1 C10 1.66 10 2.32 10 3 C10.66 3 11.32 3 12 3 C12 3.66 12 4.32 12 5 C12.66 5 13.32 5 14 5 C14 5.99 14 6.98 14 8 C15.32 8.33 16.64 8.66 18 9 C18 9.66 18 10.32 18 11 C18.66 11 19.32 11 20 11 C20 11.99 20 12.98 20 14 C20.66 14 21.32 14 22 14 C21.67 15.32 21.34 16.64 21 18 C19.68 18 18.36 18 17 18 C16.87625 18.94875 16.7525 19.8975 16.625 20.875 C16 24 16 24 14 26 C10.9609375 26.4140625 10.9609375 26.4140625 7.375 26.625 C6.18648437 26.69976563 4.99796875 26.77453125 3.7734375 26.8515625 C2.40058594 26.92503906 2.40058594 26.92503906 1 27 C1 26.01 1 25.02 1 24 C0.34 24 -0.32 24 -1 24 C-0.67 25.65 -0.34 27.3 0 29 C-1.875 28.875 -1.875 28.875 -4 28 C-5.25 24.9375 -5.25 24.9375 -6 22 C-5.34 22 -4.68 22 -4 22 C-3.87625 20.72125 -3.7525 19.4425 -3.625 18.125 C-3.25 14.25 -3.25 14.25 -1 12 C-1.2475 10.9171875 -1.2475 10.9171875 -1.5 9.8125 C-2.15737431 6.11476952 -1.17289335 3.51868004 0 0 Z " fill="#C7E865" transform="translate(7,0)"/>
<path d="M0 0 C0.99 0 1.98 0 3 0 C3 2.31 3 4.62 3 7 C3.99 6.34 4.98 5.68 6 5 C6 7.33333333 6 9.66666667 6 12 C6.20625 12.804375 6.4125 13.60875 6.625 14.4375 C7.05728067 17.39141793 6.56217417 18.51889985 5 21 C4.34 21 3.68 21 3 21 C2.87625 21.53625 2.7525 22.0725 2.625 22.625 C2.315625 23.800625 2.315625 23.800625 2 25 C1.7525 25.969375 1.505 26.93875 1.25 27.9375 C-0.25452614 31.62358905 -1.88345927 33.53575849 -5 36 C-8.30178235 36.64425021 -9.48959909 36.33107086 -12.3125 34.5 C-12.869375 34.005 -13.42625 33.51 -14 33 C-13.75 30.1875 -13.75 30.1875 -13 27 C-12.34 26.525625 -11.68 26.05125 -11 25.5625 C-8.68236577 24.0780791 -8.68236577 24.0780791 -8.1875 20.875 C-8.00524601 17.10841745 -8.30423223 13.8115181 -8.94140625 10.11328125 C-9.01417086 7.48890438 -8.46482825 6.16437764 -7 4 C-5.02111039 3.27306096 -3.02045442 2.60183749 -1 2 C-0.67 1.34 -0.34 0.68 0 0 Z M-1 4 C0 6 0 6 0 6 Z M-7 13 C-6 15 -6 15 -6 15 Z M-1 17 C-1.33 17.66 -1.66 18.32 -2 19 C-0.35 18.67 1.3 18.34 3 18 C1.68 17.67 0.36 17.34 -1 17 Z " fill="#99C42F" transform="translate(42,11)"/>
<path d="M0 0 C0.66 0 1.32 0 2 0 C2 0.99 2 1.98 2 3 C2.66 2.67 3.32 2.34 4 2 C6.04055005 1.92934383 8.08334257 1.91578024 10.125 1.9375 C11.22070312 1.94652344 12.31640625 1.95554687 13.4453125 1.96484375 C14.28835937 1.97644531 15.13140625 1.98804687 16 2 C16.03738281 2.62648438 16.07476563 3.25296875 16.11328125 3.8984375 C16.21189453 5.12433594 16.21189453 5.12433594 16.3125 6.375 C16.37050781 7.18710937 16.42851562 7.99921875 16.48828125 8.8359375 C16.82990528 11.37921338 16.82990528 11.37921338 20 13 C19.67 13.66 19.34 14.32 19 15 C17.68 14.67 16.36 14.34 15 14 C15 13.34 15 12.68 15 12 C14.34 12 13.68 12 13 12 C12.80448662 13.60320974 12.61888017 15.20762986 12.4375 16.8125 C12.33308594 17.70582031 12.22867187 18.59914063 12.12109375 19.51953125 C11.84341291 22.13375572 11.84341291 22.13375572 13 25 C8.29300559 25.47069944 4.38992621 25.85562871 0.5625 22.75 C-2.19745557 19.78809646 -3.90739462 17.80889185 -4.1171875 13.7109375 C-4.03726562 12.94007812 -3.95734375 12.16921875 -3.875 11.375 C-3.77832031 10.21097656 -3.77832031 10.21097656 -3.6796875 9.0234375 C-3 7 -3 7 -0.9453125 5.7265625 C-0.30335937 5.48679687 0.33859375 5.24703125 1 5 C0.67 3.35 0.34 1.7 0 0 Z " fill="#749D17" transform="translate(6,24)"/>
<path d="M0 0 C0.99 0 1.98 0 3 0 C3 2.31 3 4.62 3 7 C3.99 6.34 4.98 5.68 6 5 C6 7.33333333 6 9.66666667 6 12 C6.20625 12.804375 6.4125 13.60875 6.625 14.4375 C7.05728067 17.39141793 6.56217417 18.51889985 5 21 C4.01 21 3.02 21 2 21 C2.33 19.68 2.66 18.36 3 17 C1.02 17.66 -0.96 18.32 -3 19 C-3.61875 18.030625 -4.2375 17.06125 -4.875 16.0625 C-6.65678846 12.97164638 -6.65678846 12.97164638 -9 12 C-8.125 6.25 -8.125 6.25 -7 4 C-5 3.33333333 -3 2.66666667 -1 2 C-0.67 1.34 -0.34 0.68 0 0 Z M-1 4 C0 6 0 6 0 6 Z " fill="#9BC633" transform="translate(42,11)"/>
<path d="M0 0 C0.66 0 1.32 0 2 0 C2.12375 0.89460938 2.2475 1.78921875 2.375 2.7109375 C3.94467036 11.91313001 6.74522877 17.18066509 13 24 C13 24.33 13 24.66 13 25 C8.29300559 25.47069944 4.38992621 25.85562871 0.5625 22.75 C-2.19745557 19.78809646 -3.90739462 17.80889185 -4.1171875 13.7109375 C-4.03726562 12.94007812 -3.95734375 12.16921875 -3.875 11.375 C-3.77832031 10.21097656 -3.77832031 10.21097656 -3.6796875 9.0234375 C-3 7 -3 7 -0.9453125 5.7265625 C-0.30335937 5.48679687 0.33859375 5.24703125 1 5 C0.67 3.35 0.34 1.7 0 0 Z " fill="#85AF29" transform="translate(6,24)"/>
<path d="M0 0 C0.66 0 1.32 0 2 0 C2 0.66 2 1.32 2 2 C4.97 2.495 4.97 2.495 8 3 C8.02688151 4.64574566 8.04634123 6.29161413 8.0625 7.9375 C8.07410156 8.85402344 8.08570313 9.77054688 8.09765625 10.71484375 C8 13 8 13 7 14 C4.125 14.3125 4.125 14.3125 1 14 C-1.30937788 11.9215599 -1.91842728 10.63626719 -2.3125 7.5625 C-1.97109272 4.7629603 -1.16894573 2.55706877 0 0 Z " fill="#D9DCE2" transform="translate(19,36)"/>
<path d="M0 0 C0.33 0 0.66 0 1 0 C1 2.64 1 5.28 1 8 C0.34 8 -0.32 8 -1 8 C-0.67 11.3 -0.34 14.6 0 18 C2.31 18 4.62 18 7 18 C7.99 15.69 8.98 13.38 10 11 C10.6875 12.6875 10.6875 12.6875 11 15 C9.75 17.6875 9.75 17.6875 8 20 C7.01 20.33 6.02 20.66 5 21 C4.7497843 23.91634129 4.7497843 23.91634129 5 27 C8.27057143 29.18038095 9.20519469 29.63246755 13 29 C16.16528569 26.34999338 18.43646684 23.83776322 20 20 C19.71120683 23.75431122 19.51295789 26.30384286 17.25 29.375 C14.62742133 31.26908459 13.23317002 31.84962 10 32 C6.1875 31.0625 6.1875 31.0625 3 30 C2.97421875 29.38511719 2.9484375 28.77023438 2.921875 28.13671875 C2.86515625 27.32847656 2.8084375 26.52023438 2.75 25.6875 C2.70359375 24.88699219 2.6571875 24.08648437 2.609375 23.26171875 C2.20791685 20.8269294 2.20791685 20.8269294 -0.0234375 19.53515625 C-2 18 -2 18 -2.4609375 15.546875 C-2.29100392 10.01630929 -1.85838371 5.22670418 0 0 Z " fill="#9B8C93" transform="translate(24,17)"/>
<path d="M0 0 C-0.3015987 3.51865145 -1.00605962 5.00757452 -3.25 7.8125 C-6 10 -6 10 -8.5625 10.5 C-11.44967719 9.90775852 -12.91944625 9.08055375 -15 7 C-15 6.01 -15 5.02 -15 4 C-13.06441401 3.32779649 -11.12645628 2.66241923 -9.1875 2 C-8.10855469 1.62875 -7.02960937 1.2575 -5.91796875 0.875 C-3 0 -3 0 0 0 Z " fill="#DD5715" transform="translate(43,37)"/>
<path d="M0 0 C2 3 2 3 3.3125 5.8125 C5.19941388 9.37667065 7.34173398 11.98250884 10 15 C6.0009094 14.76928323 3.66603579 14.56356875 0.5625 11.9375 C-1.55642801 7.95391534 -1.37287119 5.4744543 -1 1 C-0.67 0.67 -0.34 0.34 0 0 Z " fill="#D85713" transform="translate(8,32)"/>
<path d="M0 0 C0.03738281 0.62648438 0.07476562 1.25296875 0.11328125 1.8984375 C0.21189453 3.12433594 0.21189453 3.12433594 0.3125 4.375 C0.39951172 5.59316406 0.39951172 5.59316406 0.48828125 6.8359375 C0.82990528 9.37921338 0.82990528 9.37921338 4 11 C3.67 11.66 3.34 12.32 3 13 C1.68 12.67 0.36 12.34 -1 12 C-1 11.34 -1 10.68 -1 10 C-1.99 9.67 -2.98 9.34 -4 9 C-4 7.68 -4 6.36 -4 5 C-6.475 4.01 -6.475 4.01 -9 3 C-6.15236477 0.15236477 -3.96383452 0 0 0 Z " fill="#96BE3A" transform="translate(22,26)"/>
<path d="M0 0 C1.89213369 2.38573379 3.02391783 4.07175348 4 7 C3.360625 7.12375 2.72125 7.2475 2.0625 7.375 C1.0415625 7.684375 1.0415625 7.684375 0 8 C-0.33 8.66 -0.66 9.32 -1 10 C-1.99 10 -2.98 10 -4 10 C-4 10.66 -4 11.32 -4 12 C-3.38125 11.814375 -2.7625 11.62875 -2.125 11.4375 C0 11 0 11 2 12 C1.67 12.66 1.34 13.32 1 14 C-0.98 14 -2.96 14 -5 14 C-5 12.02 -5 10.04 -5 8 C-4.34 8 -3.68 8 -3 8 C-3 5.69 -3 3.38 -3 1 C-2.01 0.67 -1.02 0.34 0 0 Z " fill="#E55315" transform="translate(28,17)"/>
<path d="M0 0 C0.33 0 0.66 0 1 0 C1.2475 1.258125 1.495 2.51625 1.75 3.8125 C2.44290571 6.54081624 2.80146737 7.78728647 4.75 9.875 C7.43197772 11.21598886 10.12676603 12.15108996 13 13 C13 13.33 13 13.66 13 14 C8.17207121 14.48279288 4.34532299 14.82060585 0.4375 11.625 C-2 9 -2 9 -2 7 C-1.34 7 -0.68 7 0 7 C0 4.69 0 2.38 0 0 Z " fill="#92A820" transform="translate(6,35)"/>
<path d="M0 0 C1.15518918 0.90484792 2.29885406 1.8244206 3.4375 2.75 C4.07558594 3.26046875 4.71367187 3.7709375 5.37109375 4.296875 C7.20770191 6.21716554 7.74138507 7.37074816 8 10 C6.5625 11.75 6.5625 11.75 5 13 C1.68441485 8.61487125 0.45003347 5.62541841 0 0 Z " fill="#95C12C" transform="translate(11,30)"/>
<path d="M0 0 C0.33 0 0.66 0 1 0 C0.71120683 3.75431122 0.51295789 6.30384286 -1.75 9.375 C-4.37257867 11.26908459 -5.76682998 11.84962 -9 12 C-12.8125 11.0625 -12.8125 11.0625 -16 10 C-16 7.69 -16 5.38 -16 3 C-15.731875 3.61875 -15.46375 4.2375 -15.1875 4.875 C-14.04443152 7.2995233 -14.04443152 7.2995233 -11 9 C-8.58582128 9.58402133 -8.58582128 9.58402133 -6 9 C-2.77031321 6.35752899 -0.47386028 4.26474248 0 0 Z " fill="#989C4D" transform="translate(43,37)"/>
<path d="M0 0 C0.66 0 1.32 0 2 0 C2.67413211 1.91405367 3.3390332 3.83136026 4 5.75 C4.37125 6.81734375 4.7425 7.8846875 5.125 8.984375 C6 12 6 12 6 16 C6.66 16.33 7.32 16.66 8 17 C7.67 17.66 7.34 18.32 7 19 C6.01 19 5.02 19 4 19 C3.69255859 17.31970703 3.69255859 17.31970703 3.37890625 15.60546875 C3.10688311 14.13279176 2.83474151 12.66013664 2.5625 11.1875 C2.36043945 10.08051758 2.36043945 10.08051758 2.15429688 8.95117188 C1.58580263 5.88684924 0.98690349 2.96071047 0 0 Z " fill="#9FC938" transform="translate(12,7)"/>
<path d="M0 0 C0.99 0 1.98 0 3 0 C2.34 2.97 1.68 5.94 1 9 C1.66 9 2.32 9 3 9 C2.67 9.99 2.34 10.98 2 12 C1.67 11.34 1.34 10.68 1 10 C0.01 9.67 -0.98 9.34 -2 9 C-1.125 1.125 -1.125 1.125 0 0 Z " fill="#494E94" transform="translate(31,8)"/>
<path d="M0 0 C0.66 0 1.32 0 2 0 C2 0.66 2 1.32 2 2 C4.97 2.495 4.97 2.495 8 3 C8 4.98 8 6.96 8 9 C7.79375 8.360625 7.5875 7.72125 7.375 7.0625 C6.10461791 4.65074923 6.10461791 4.65074923 2.875 4.25 C1.92625 4.1675 0.9775 4.085 0 4 C0 2.68 0 1.36 0 0 Z " fill="#DBE1D5" transform="translate(19,36)"/>
<path d="M0 0 C0.6875 1.6875 0.6875 1.6875 1 4 C-0.25 6.6875 -0.25 6.6875 -2 9 C-2.99 9.33 -3.98 9.66 -5 10 C-5.33 10.99 -5.66 11.98 -6 13 C-6.99 11.35 -7.98 9.7 -9 8 C-7.88625 7.79375 -6.7725 7.5875 -5.625 7.375 C-1.73400805 6.38371699 -1.73400805 6.38371699 -0.5625 2.875 C-0.376875 1.92625 -0.19125 0.9775 0 0 Z " fill="#665D95" transform="translate(34,28)"/>
<path d="M0 0 C1.65 0 3.3 0 5 0 C5.5625 1.9375 5.5625 1.9375 6 4 C5 5 5 5 2.4375 5.0625 C1.2309375 5.0315625 1.2309375 5.0315625 0 5 C0 3.35 0 1.7 0 0 Z " fill="#ED9A6B" transform="translate(24,30)"/>
<path d="M0 0 C1.4606285 2.64738916 2 3.89448334 2 7 C-0.31 7.66 -2.62 8.32 -5 9 C-5 8.01 -5 7.02 -5 6 C-3.68212715 4.97971135 -2.34789347 3.98028616 -1 3 C-0.67 2.01 -0.34 1.02 0 0 Z " fill="#94BA3B" transform="translate(34,32)"/>
<path d="M0 0 C1.81325551 0.11351517 3.62563357 0.24112961 5.4375 0.375 C6.95150391 0.47941406 6.95150391 0.47941406 8.49609375 0.5859375 C9.73552734 0.79089844 9.73552734 0.79089844 11 1 C11.33 1.66 11.66 2.32 12 3 C10.56344146 3.08131463 9.1255517 3.13933559 7.6875 3.1875 C6.48673828 3.23970703 6.48673828 3.23970703 5.26171875 3.29296875 C2.52148416 2.93801608 1.70828921 2.10633718 0 0 Z " fill="#8FB729" transform="translate(7,46)"/>
<path d="M0 0 C0.99 0.33 1.98 0.66 3 1 C4.65049717 5.43028188 5.22973141 9.29050618 5 14 C4.67 14 4.34 14 4 14 C3.34 11.03 2.68 8.06 2 5 C1.34 5 0.68 5 0 5 C0 3.35 0 1.7 0 0 Z " fill="#9E7473" transform="translate(29,17)"/>
<path d="M0 0 C0.33 0 0.66 0 1 0 C0.50769231 6.4 0.50769231 6.4 -2.0625 9.4375 C-3.0215625 10.2109375 -3.0215625 10.2109375 -4 11 C-4.99 10.67 -5.98 10.34 -7 10 C-6.21625 9.278125 -5.4325 8.55625 -4.625 7.8125 C-2.15587562 5.16700959 -1.06739722 3.39626389 0 0 Z " fill="#90AB27" transform="translate(43,37)"/>
<path d="M0 0 C1.32 0.33 2.64 0.66 4 1 C4.33 3.31 4.66 5.62 5 8 C2.5 5.6875 2.5 5.6875 0 3 C0 2.01 0 1.02 0 0 Z " fill="#709D14" transform="translate(14,30)"/>
<path d="M0 0 C0.99 0 1.98 0 3 0 C2.25 4.75 2.25 4.75 0 7 C-1.125 2.25 -1.125 2.25 0 0 Z " fill="#D35920" transform="translate(40,37)"/>
<path d="M0 0 C1.32 0 2.64 0 4 0 C4 0.99 4 1.98 4 3 C1.69 3.33 -0.62 3.66 -3 4 C-3 3.34 -3 2.68 -3 2 C-2.01 2 -1.02 2 0 2 C0 1.34 0 0.68 0 0 Z " fill="#CEAE92" transform="translate(27,25)"/>
<path d="M0 0 C0.99 0.33 1.98 0.66 3 1 C3 2.65 3 4.3 3 6 C1.68 5.34 0.36 4.68 -1 4 C-0.67 2.68 -0.34 1.36 0 0 Z " fill="#E4530F" transform="translate(37,38)"/>
<path d="M0 0 C0.625 1.875 0.625 1.875 1 4 C0.34 4.66 -0.32 5.32 -1 6 C-3.125 5.625 -3.125 5.625 -5 5 C-4.34 4.67 -3.68 4.34 -3 4 C-2.67 3.01 -2.34 2.02 -2 1 C-1.34 0.67 -0.68 0.34 0 0 Z " fill="#E75211" transform="translate(32,30)"/>
<path d="M0 0 C1.9451 2.91765 2.45276317 4.62537285 3 8 C2.01 7.67 1.02 7.34 0 7 C-0.38133299 5.0085944 -0.71325582 3.00720923 -1 1 C-0.67 0.67 -0.34 0.34 0 0 Z " fill="#CA5A17" transform="translate(8,32)"/>
</svg>
