<?xml version="1.0" encoding="UTF-8"?>
<svg version="1.1" xmlns="http://www.w3.org/2000/svg" width="48" height="50">
<path d="M0 0 C15.84 0 31.68 0 48 0 C48 16.5 48 33 48 50 C32.16 50 16.32 50 0 50 C0 33.5 0 17 0 0 Z " fill="#376A93" transform="translate(0,0)"/>
<path d="M0 0 C15.84 0 31.68 0 48 0 C48 16.5 48 33 48 50 C32.16 50 16.32 50 0 50 C0 33.5 0 17 0 0 Z M18 3 C17.01 2.67 16.02 2.34 15 2 C10.65215196 1.64936709 8.02035479 1.57485217 4 3.25 C0.29183029 8.34873336 1.59556869 14.49675043 2.2890625 20.50390625 C3.28697148 26.12937353 5.70312229 30.38185451 9 35 C12.00939663 33.59318265 12.00939663 33.59318265 14.4375 31.375 C16 30 16 30 18.6875 29.8125 C19.8321875 29.9053125 19.8321875 29.9053125 21 30 C20.67 30.99 20.34 31.98 20 33 C17.9375 33.6875 17.9375 33.6875 16 34 C16 34.66 16 35.32 16 36 C19.81813447 35.72459296 19.81813447 35.72459296 23 34 C23.19916016 35.26457031 23.19916016 35.26457031 23.40234375 36.5546875 C23.57894531 37.65039062 23.75554688 38.74609375 23.9375 39.875 C24.11152344 40.96554688 24.28554688 42.05609375 24.46484375 43.1796875 C24.85551159 45.93821546 24.85551159 45.93821546 26 48 C29.41656024 48.16677282 29.41656024 48.16677282 33 48 C35.80478513 45.19521487 35.96108361 43.11456528 36.09765625 39.203125 C36.08605469 38.22859375 36.07445312 37.2540625 36.0625 36.25 C36.05347656 35.26515625 36.04445312 34.2803125 36.03515625 33.265625 C36.02355469 32.51796875 36.01195312 31.7703125 36 31 C36.66 31 37.32 31 38 31 C38 31.66 38 32.32 38 33 C40.31 33 42.62 33 45 33 C45.33 32.34 45.66 31.68 46 31 C43.69 31 41.38 31 39 31 C39.598125 29.845 40.19625 28.69 40.8125 27.5 C45.89601994 17.25568042 45.89601994 17.25568042 46 6 C43.69488506 3.18697838 41.48754179 2.03041007 38 1 C31.46277185 0.61545717 24.24581854 0.91806049 18 3 Z " fill="#FAFBFC" transform="translate(0,0)"/>
<path d="M0 0 C0.66 0.33 1.32 0.66 2 1 C1.505 2.19625 1.01 3.3925 0.5 4.625 C-1.83966415 11.57777555 -2.00138312 19.6320037 -0.36328125 26.77734375 C-0.18345703 27.87755859 -0.18345703 27.87755859 0 29 C-1.9375 31.3125 -1.9375 31.3125 -4 33 C-6.69849979 31.98735543 -7.80479051 31.35013765 -9.23046875 28.79296875 C-9.54628906 27.93316406 -9.86210937 27.07335937 -10.1875 26.1875 C-10.51105469 25.33542969 -10.83460937 24.48335937 -11.16796875 23.60546875 C-13.21673164 17.18985913 -13.81468137 10.69743867 -13 4 C-9.4742939 -0.84784588 -5.541313 -0.45420598 0 0 Z " fill="#396C94" transform="translate(15,2)"/>
<path d="M0 0 C3.27191292 1.35815253 5.49895506 2.49895506 8 5 C9.03287676 14.00078316 5.99424597 22.50863105 1 30 C3.31 30 5.62 30 8 30 C7.67 30.66 7.34 31.32 7 32 C4.69 32 2.38 32 0 32 C-0.4021875 30.453125 -0.4021875 30.453125 -0.8125 28.875 C-1.53904738 26.27720108 -2.33697364 24.36493429 -3.625 21.9375 C-5.16169582 18.65455893 -5.40703282 16.5818888 -5 13 C-4.34 12.34 -3.68 11.68 -3 11 C-2.01 11 -1.02 11 0 11 C-2.73152399 6.27236232 -4.93126149 4.07357484 -10 2 C-6.25816125 -0.49455917 -4.43756964 -0.37606522 0 0 Z " fill="#BCCDDB" transform="translate(38,1)"/>
<path d="M0 0 C0.66 0.66 1.32 1.32 2 2 C0.68 4.64 -0.64 7.28 -2 10 C-0.88625 9.95875 0.2275 9.9175 1.375 9.875 C5 10 5 10 7 12 C7.62731121 17.21221812 7.50842897 22.29669569 5 27 C2.69 27 0.38 27 -2 27 C-5.34729998 21.62564984 -4.47073778 15.08497805 -4 9 C-3.27904942 6.29643531 -2.3943599 4.45407342 -1 2 C-0.67 1.34 -0.34 0.68 0 0 Z " fill="#C8D6E1" transform="translate(17,3)"/>
<path d="M0 0 C5.02237015 -0.29543354 7.9107578 -0.00679573 12 3 C13.53209716 4.53209716 13.20614547 5.93190053 13.25 8.0625 C13.20281268 12.97784619 12.06532219 16.55161375 10 21 C9.34 21.33 8.68 21.66 8 22 C7.97421875 21.20335938 7.9484375 20.40671875 7.921875 19.5859375 C7.58343819 13.26332263 7.24261841 8.99131578 3 4 C2.4225 3.21625 1.845 2.4325 1.25 1.625 C0.8375 1.08875 0.425 0.5525 0 0 Z " fill="#3D6E96" transform="translate(33,2)"/>
<path d="M0 0 C2.16874252 0.50603992 3.99967627 0.99983813 6 2 C6.33 1.34 6.66 0.68 7 0 C7.05437607 1.58294782 7.09296271 3.16644256 7.125 4.75 C7.14820313 5.63171875 7.17140625 6.5134375 7.1953125 7.421875 C6.99139502 10.1135858 6.36551721 11.69904974 5 14 C1.125 13.125 1.125 13.125 0 12 C-0.07244053 9.98035801 -0.08377188 7.95832876 -0.0625 5.9375 C-0.05347656 4.83277344 -0.04445313 3.72804688 -0.03515625 2.58984375 C-0.02355469 1.73519531 -0.01195312 0.88054688 0 0 Z " fill="#396B94" transform="translate(15,15)"/>
<path d="M0 0 C3.96 0 7.92 0 12 0 C12 0.66 12 1.32 12 2 C10.329375 2.433125 10.329375 2.433125 8.625 2.875 C4.99708908 3.69241329 4.99708908 3.69241329 3 6 C2.53837573 8.43252661 2.53837573 8.43252661 2.375 11.125 C2.30023438 12.03507813 2.22546875 12.94515625 2.1484375 13.8828125 C2.09945313 14.58148438 2.05046875 15.28015625 2 16 C1.67 16 1.34 16 1 16 C0.67 10.72 0.34 5.44 0 0 Z " fill="#F1F4F7" transform="translate(0,0)"/>
<path d="M0 0 C3.375 -0.125 3.375 -0.125 7 0 C9 2 9 2 9.265625 4.20703125 C9.21379833 12.84912813 9.21379833 12.84912813 7 17 C6.34 16.67 5.68 16.34 5 16 C5.165 15.505 5.33 15.01 5.5 14.5 C6.20688818 10.96555911 6.06005155 7.60309299 6 4 C5.195625 3.71125 4.39125 3.4225 3.5625 3.125 C1 2 1 2 0 0 Z " fill="#BECEDC" transform="translate(15,13)"/>
<path d="M0 0 C1.32 0 2.64 0 4 0 C4 3.96 4 7.92 4 12 C0.09090909 8.09090909 0.09090909 8.09090909 -1 5 C-0.625 2.25 -0.625 2.25 0 0 Z " fill="#7498B4" transform="translate(35,14)"/>
<path d="M0 0 C0.66 0.33 1.32 0.66 2 1 C2 4.63 2 8.26 2 12 C1.67 12 1.34 12 1 12 C0.67 9.36 0.34 6.72 0 4 C-0.99 4.66 -1.98 5.32 -3 6 C-4.32 6 -5.64 6 -7 6 C-7 5.34 -7 4.68 -7 4 C-6.401875 3.896875 -5.80375 3.79375 -5.1875 3.6875 C-2.71756736 2.91123545 -1.67748765 1.92911079 0 0 Z " fill="#8FACC3" transform="translate(23,30)"/>
<path d="M0 0 C0.99 0 1.98 0 3 0 C3 2.64 3 5.28 3 8 C1.5 6.8125 1.5 6.8125 0 5 C-0.1875 2.3125 -0.1875 2.3125 0 0 Z " fill="#376A93" transform="translate(35,16)"/>
</svg>
